# xmcd
#
# Track frame offsets:
#	150
#	13586
#	28490
#	37999
#	52819
#	61370
#	72677
#	81870
#	94999
#	108390
#	120980
#
# Disc length: 1725 seconds
#
# Revision: 0
# Processed by: cddbd v1.4b41PL1 Copyright (c) Steve Scherf et al.
# Submitted via: audiograbber 1.80
#
DISCID=9106bb0b
DTITLE=The Kitchen Syncopators - The Kitchen Syncopators
DYEAR=1900
DGENRE=
TTITLE0=Casey Jones
TTITLE1=Sittin' on top of the World
TTITLE2=Meet You in the Mornin'
TTITLE3=Stop and Listen
TTITLE4=Victory Rag
TTITLE5=Jailhouse Blues
TTITLE6=Little Sadie
TTITLE7=Louis Collins
TTITLE8=Cocaine Blues
TTITLE9=Junko Partner
TTITLE10=She's Givin' it Away
EXTD=
EXTT0=
EXTT1=
EXTT2=
EXTT3=
EXTT4=
EXTT5=
EXTT6=
EXTT7=
EXTT8=
EXTT9=
EXTT10=
PLAYORDER=
